/* XPM */
static char *_7130e26d66d47c389f7c12aaeeb1590gTf8xDQszzdPi4tb[] = {
/* columns rows colors chars-per-pixel */
"64 64 256 2 ",
"   c #010101",
".  c #0B0503",
"X  c #0C0905",
"o  c #060808",
"O  c #120504",
"+  c #140A05",
"@  c #1B0B05",
"#  c #140B0A",
"$  c #1B0E0A",
"%  c #1A0305",
"&  c #1C110B",
"*  c #171308",
"=  c #170D13",
"-  c #1C1413",
";  c #181419",
":  c #090E11",
">  c #220C05",
",  c #240D09",
"<  c #290706",
"1  c #360906",
"2  c #231404",
"3  c #23130C",
"4  c #2A150D",
"5  c #2B1A0D",
"6  c #261A08",
"7  c #361809",
"8  c #280C15",
"9  c #241513",
"0  c #2B1611",
"q  c #251A14",
"w  c #2C1B13",
"e  c #28191B",
"r  c #3C1314",
"t  c #331C15",
"y  c #3B1C13",
"u  c #33141C",
"i  c #341D1A",
"p  c #3B1D1A",
"a  c #371418",
"s  c #3C0A17",
"d  c #37230A",
"f  c #2C2217",
"g  c #34221B",
"h  c #3B221B",
"j  c #372316",
"k  c #2F3211",
"l  c #020424",
"z  c #181927",
"x  c #0C1331",
"c  c #271927",
"v  c #361A26",
"b  c #320F31",
"n  c #192239",
"m  c #0A252F",
"M  c #272427",
"N  c #352422",
"B  c #3B2523",
"V  c #392828",
"C  c #272636",
"Z  c #392634",
"A  c #3B3436",
"S  c #2E3533",
"D  c #1E2015",
"F  c #480705",
"G  c #471409",
"H  c #451917",
"J  c #550F14",
"K  c #790405",
"L  c #721413",
"P  c #6D1011",
"I  c #492406",
"U  c #42241C",
"Y  c #49271A",
"T  c #533015",
"R  c #6E2E14",
"E  c #451927",
"W  c #531031",
"Q  c #6E0C30",
"!  c #452926",
"~  c #463229",
"^  c #563927",
"/  c #442A38",
"(  c #513030",
")  c #6B342C",
"_  c #544333",
"`  c #674537",
"'  c #744931",
"]  c #69431D",
"[  c #061847",
"{  c #0B1052",
"}  c #331451",
"|  c #13264E",
" . c #302C4C",
".. c #051667",
"X. c #031876",
"o. c #0F106F",
"O. c #301167",
"+. c #06226A",
"@. c #052478",
"#. c #122C6F",
"$. c #2F3074",
"%. c #50104E",
"&. c #6A114C",
"*. c #4C3048",
"=. c #742D4A",
"-. c #47126D",
";. c #4B2C76",
":. c #6D2D6F",
">. c #6F1462",
",. c #324571",
"<. c #2A4755",
"1. c #50494C",
"2. c #70514C",
"3. c #4A4E6C",
"4. c #74686B",
"5. c #774C68",
"6. c #8C0204",
"7. c #980503",
"8. c #8F0D15",
"9. c #A80505",
"0. c #B90804",
"q. c #A80717",
"w. c #B70818",
"e. c #AB1514",
"r. c #8C3011",
"t. c #920D2E",
"y. c #AA0827",
"u. c #B40E2E",
"i. c #8A3A26",
"p. c #AC2D2C",
"a. c #AF2E0D",
"s. c #C60606",
"d. c #D90308",
"f. c #D50817",
"g. c #D01210",
"h. c #E50917",
"j. c #F10D0A",
"k. c #F02B18",
"l. c #CF0E2A",
"z. c #F00E29",
"x. c #EA2A30",
"c. c #D02A20",
"v. c #915231",
"b. c #AC6633",
"n. c #A15625",
"m. c #CD4E3A",
"M. c #F85331",
"N. c #CC6D34",
"B. c #E36027",
"V. c #8F0B48",
"C. c #AF1449",
"Z. c #8D2D4F",
"A. c #B0334D",
"S. c #84176E",
"D. c #A12F6D",
"F. c #EC0E46",
"G. c #F32E4F",
"H. c #D32C51",
"J. c #8E544A",
"K. c #B15355",
"L. c #966844",
"P. c #8C7156",
"I. c #B16E4E",
"U. c #B25473",
"Y. c #8F6E6D",
"T. c #B2786B",
"R. c #8B506A",
"E. c #CF514F",
"W. c #EE5153",
"Q. c #CA7450",
"!. c #FB6A51",
"~. c #E1656D",
"^. c #C78E25",
"/. c #B98955",
"(. c #B68875",
"). c #B19D6C",
"_. c #D28755",
"`. c #D38E6C",
"'. c #F2AB72",
"]. c #E49963",
"[. c #FFD85E",
"{. c #071A87",
"}. c #0E1B8D",
"|. c #062788",
" X c #053389",
".X c #18368C",
"XX c #062996",
"oX c #033897",
"OX c #17379A",
"+X c #172A8E",
"@X c #2A3091",
"#X c #0528A6",
"$X c #0337A6",
"%X c #0F31B0",
"&X c #2F35A8",
"*X c #1A1B99",
"=X c #4D2791",
"-X c #6F378F",
";X c #4932AA",
":X c #5F2DA4",
">X c #0B4790",
",X c #2B4B87",
"<X c #0545A8",
"1X c #114AB4",
"2X c #3051B5",
"3X c #2565AF",
"4X c #46498E",
"5X c #71488E",
"6X c #7853A5",
"7X c #5167AD",
"8X c #6967B3",
"9X c #4F61A2",
"0X c #0F39CD",
"qX c #2C3CCC",
"wX c #0930E1",
"eX c #1844C4",
"rX c #0547D6",
"tX c #1050D1",
"yX c #2A4DCF",
"uX c #156AD4",
"iX c #3267D2",
"pX c #0E4EF0",
"aX c #0E67F4",
"sX c #3467ED",
"dX c #2A55EA",
"fX c #4D70D1",
"gX c #4D71E6",
"hX c #5259D1",
"jX c #7F3DD2",
"kX c #8A2C8C",
"lX c #8D3DAA",
"zX c #926E8B",
"xX c #A36096",
"cX c #D66D92",
"vX c #A774C1",
"bX c #6682B9",
"nX c #3A8EF5",
"mX c #34A8FF",
"MX c #5287DD",
"NX c #528BF8",
"BX c #6F94D6",
"VX c #B79290",
"CX c #BBB0B4",
"ZX c #8D87A7",
"AX c #EF8F91",
"SX c #D5AB8E",
"DX c #F1AF93",
"FX c #D18CA9",
"GX c #F7B6A6",
"HX c #D1969E",
"JX c #FBC9A4",
"KX c #F8D4B1",
"LX c #FFD192",
"PX c #959EDF",
"IX c #F3A6DC",
"UX c #F6DAD0",
/* pixels */
"                                                          . . . . .                                                             ",
"                                                                            o o                                                 ",
"                                                                o o                                                             ",
"                                                                    o o                                                         ",
"                                                o                                                                               ",
"                                                            . . + . .                                                           ",
"                                                        . O @ & t 5 3 * O .                                                     ",
"                                                    . + & w h ! d j h g e - o                                                   ",
"                                        . . . .   : . N - o : X # M M * j ` 3 .                                                 ",
"                                                o . g V e X q . O . . + @ ^ V                                                   ",
". . . . . . . . . . . . . . . . o o .           O . ~ 3 # - w 7 ) ] ^ 2.` ^ f                                                   ",
". . . . . X X X + + X . . X + + # X X o . . . . . ~ h O o f @ ` `.DXGXKXKXP..   . .                     . . . . . . . . . . . . ",
"O + + + + + + + @ + + + + + @ @ # # # X X X X X . _ ~ 6 * * @ ' ].DXJXJXKXVX+ : X . . o . . . . . .     . o . X X X X X X . . . ",
"@ @ @ @ @ @ @ $ $ @ @ @ @ @ @ $ + + + + + + O O X f _ k 6 + T ' N._.JXJXKXUX2.. # # X X X X . . . . . . . . X X + + + + + X X . ",
"@ @ @ @ > > , , > > > > > > > > @ @ 2 2 2 2 @ @ * + _ T Y Y ) L.].Q._.v.L.JXP.& $ $ # # # + O O X . . . . X # # # # # # # O O X ",
"@ @ > > , , , , , , > > > > , , 2 6 6 5 5 5 6 6 : w ' J.J.J.I I._.`.I.' L.SX2.2 $ $ $ $ $ $ + + X X . . X + # # # # # # # + O O ",
"> > > $ - 9 8 , 4 < , < < , , , 2 6 6 d d d 7 7 * 6 U `.~.Q.i.)._.DXKXKX`.`.VX@ 0 6 2 > > @ $ @ # # # # # # # # + + + O + + + # ",
"> > $ $ = = 8 8 8 8 , < < , , 3 2 6 6 d d d d 7 f j 7 I.'.N.Q.L.Q.`.GXKXQ.Q.SX5 4 6 2 2 > $ $ @ # # # + + + + + + + + + + + + + ",
"> @ $ = = ; ; e 9 9 9 9 3 3 3 3 2 6 6 d d d d d d 2 7 L.`.`.v.] N._._.'.b.r.L.< 4 4 3 3 3 & $ $ # # + + + + + + @ + + + O O O O ",
"$ $ # # = ; z z c c e e q q q q 2 6 5 d d d d t < U O P.SXb.R I r.Q._.].b.i.' 7 5 4 3 3 3 & $ $ $ $ $ $ $ $ @ + * @ $ + + O + + ",
"& # # # = ; z z z c M M f f f f 4 4 5 d d d 5 5 y j O P.JXv.R T 1 R I.v.F R ^ @ 5 4 3 3 3 3 & $ & 3 3 3 3 3 3 3 & & @ @ @ + + + ",
"# # + # = z z n n C C M M N g g w w w 5 5 4 4 4 v + q (.JXI.G Y y I v.v.v.J.U 4 0 4 3 3 3 3 & & 3 3 3 w w w w 3 3 3 3 & @ $ @ @ ",
"+ + + # = z z n n n C C V V V B g g w 5 6 6 3 3 = C N KXSXI.T @ O < R I.GX(.7 7 0 4 3 3 3 3 $ $ 3 3 4 w w w w w q 3 3 3 $ $ $ $ ",
"+ + + # = z z n n n C C Z V V ! B N g 4 6 3 3 3 C z ZXUX`.I.] @ e I R n.I.J.Y 7 0 4 3 3 3 3 $ $ 3 6 4 w f f f f w w 3 3 & $ $ $ ",
"@ $ $ $ $ ; z z x n n C V ! B V N c 7 7 v  .,.@X X$X:.I.`.T.Y.. 8 * I v.N.4.4X1.v c * 2 2 8 e 6 4 0 t j g j w 0 0 w 3 3 & & $ = ",
"$ $ $ & - ; z z z n n M B U i N I ( A <.,X>X#.#.;.;.t.L.SX`.b.I < * G ) ' 2XpXtX4X,.| : * 0 9 @ 4 0 t j j t w 4 0 0 3 3 $ $ $ $ ",
"$ 3 9 9 9 - ; z ; z z c h y t N k 3.,X>X$Xo.W D.d.g.j.i.4././.k 9 k r.u.a.5XlX9XiXiX3X$.x + 2 a 4 5 0 w w w 4 4 0 w 3 3 & $ $ $ ",
"3 0 w w w 9 - ; - ; e w y 7 t A 9X3XoX#X%X:.f.z.z.l.x.Z.$.R.(.*.l M 0.h.d.g.h.t.rXuXgXfX$.* 2 E 0 w w w 0 3 3 3 w w 3 3 3 3 9 9 ",
"0 t p h i w q 9 9 9 9 0 7 7 B 1.7X.X}.#X#X=.g.0.d.w.w.Q +X}.OXqXo.} d.z.z.l.z.:.rX1XyXgX2XS & 8 0 0 4 3 3 3 3 3 9 9 3 3 3 0 0 w ",
"t h U U h i w w 0 q 3 7 y 7 V 3.#.[ | +XX.E 0.8.q.L 8.W +X|.@.+XyX-Xz.G.G.G.G.lXdXeX1XiXiX,XC 8 i t 0 3 3 3 3 3 3 3 3 3 4 0 0 t ",
"h U Y ! U h i t w w 4 y y 4 Z 3.<.m x |.XX&.h.y.z.g.c.:.0XrXtXwXpXkXj.x.x.k.k.lXaXtXeX2XiX2X$.d B g i 0 3 3 9 0 w w w 0 0 t t t ",
"U Y ! ! Y U h p t w 0 y y 3 c 3.[ x { *X#Xt.j.x.z.j.h.-.pX#X@.dXrXkXk.E.W.M.m.jXpXrX%X<XtXsX,.d ! B i w 0 9 0 w g g g t t j j j ",
"h ! ! U U U U h D p 4 X f < V <.z m { X.XXS.a.0.c.j.h.yXqXrXaXtXpX:XM.`.].[.N.6XuXpXwXhX.X3X2XT ~ ~ q f j y > h g g g g g i h h ",
"h ! ! h h h h p q 4 p f q % *.9X| m {  X$XU.!.M.!.k.x.qXqXyX0XqXtX5XM.).`.].W.8XuXpX%X@X#.3X2XA ~ ~ V V B ! 0 g g g g g g g h t ",
"t h h g i g g i g p ( j f / 3.,.[ l x >X$XZ.M.g.h.d.h.&XeXtXrXeXrX-XH.Y.zXY.G.hXpXpX.X,.>XuXiX3.) T _ / / / v N N g w w g h j t ",
"4 w w w w w t g ~ ( ) T _ 1. .: x o . +.XXQ k.s.h.x.k.&XtX%XyXyXrXD.F.p.K.A.G.eXpX%X+.#.oX1X7XZXL.T ` / / / B g N g t t p g j t ",
"$ $ 3 3 9 q w g T ^ v.n.L.*.l : l + . [ +X&.s.l.f.l.f.&XtXeXyXtXpXA.F.k.c.x.G.%X0X+.l l ..$.Y.SX/.] ^ ~ ( ! g f i i p y y t g g ",
"# + # & & - q f I ' L.N./.3.l *   + . ; $.-.9.u.z.l.d.=X0XtX<X$XwXC.z.z.h.j.D.wX XD *   c ' ^.^.(.' Y h ~ i t q u p H H H h h V ",
"$ # # # $ $ - e T J.I.N.`.ZX[ . : o l <  .*Xp.W.m.E.0.6XyXiXPXgX1XE.j.W.W.k.4XsX#.d Y 2 d n.^.n.Y.4.B g h 0 v e a a H H Y Y ! ! ",
"& # # # # # & q T 2.I.].`.ZX{   l   { T  .%Xn.E.r.AXs.IXMX.XPXoXfXGXs.FXIXW.tXsX@XY ) 5 7 R N.R.5.zXZ V w 8 v c v r H H Y ( ( ! ",
", q - X . # & & B r.L._.HXfX#.{ l ..;.k 2X1X=.E.i.Q.~.bXPX2XPX&XPXHXK.GXDXcXgXpX.X| T R F 5.7XsXsXfX .* e z c - u r H J J Y ! B ",
"4 0 9 $ # # & & V R ' b.VXiX X{ z [ ;.I 2X1XV.p.AXU.A.#.7XhXfXiX4XU.!.~.~.H.ZXCX2XA R ( 2XaXsXNXnXMX .e c z C c u a H H H ! ! B ",
"0 t w q 9 - - ; M T ) v.ZXtX+X@.z [ ;.^ >X1XC.e.p.p.~.8XbXPX7XBX8Xm.W.H.W.G.T.).UXY.1.,XNXNXNXNXmXMX .v Z n C E v v a H H E v v ",
"t t t w e c c c b Y R J.BXtXOX+X[ +.$./ &X1XC.0.7.c.W.PXBXPXBXBXFXcXAXT.cX~.`.IXUXKXCXBXNXNXMXfXnX7X*.W / C Z E v v v a r u u c ",
"t t 0 t N C C  .%.) 8.U.BX1X%X+X..;.,. .;X1Xt.g.w.u.y.@X%X0X2X0X$.c.H.H.p.E.xXCXGXKXUXPXiXNXMXfX9X:.Q L ( A V E v v v u u u u e ",
"u 4 4 w M C | | &.Z.e.xXgX1XeX&XO.kX3.$.:X<X8.s.0.q.u.}.#X#X#X0X@XF.j.d.Q.T.`.GXDXDXKXPXiXNXnXiX=.Q L 8.) ( ! B c u u u a a u u ",
"u 8 4 g Z  .| +.&.C.g.vXsX1XtX&X-XU.2.;.-XoXq.0.0.7.q.X.oX0X|.$XOXl.j.f.b.L.T.'.VX'.LXCXiXuX4X=.8.8.8.L R ) ! v u u t p p p p p ",
"u 0 0 N A  .| ..&.C.l.PXsX1XuX2XcXE.2.:.;.oXl.0.w.y.t.XX$X#XXX#X} y.F J Y v.) (.DXGXCX3.} Q 8.9.e.8.R R P Q E u w t y p U U U H ",
"t 2 6 k _  . .{ >.p.U.MXeXyX3XxXW.U.:.&.,X@Xq.q.K 7.Q |.}.XX#X|.O.7.< o 1 7 2.P.(.2.Y 7 G J P P L L L P P H y w w w y H Y Y U h ",
"M - f A 1. .| [ G A.6X1XXX@.$.xXA.K.*.>.>X;.e.7.8.6.Q X.}.XXXXX.O.7.7 ; F % l # 4 3 4 y U H G G J J J F F 1 3 & 9 w t U Y ! ! B ",
"S ; M  .*. .| x ^ Z.bX7X5.,.5XcXU.K.&.=X<X} w.6.8.6.Q X.{.|.{.X.} 6.< o F 8 ..} 9 w g N N i u a G F F F 1 < $ # - e w h h B N N ",
"1.M c / *./ Z Z 1.5.CXSXAXzXZXFXHXJ.Q OX%X| s.8.6.7.Q @.o.X.{.@.} 6.F 1 K %.OX$.B w 3 9 e N v v H r 1 1 1 , $ # = - q e w w q 9 ",
"1.~ B ( 1.` ` ` T VXJX'.'.AXzXFXcX*.Q XX%X .0.y.6.7.&.|.o.X.{.{.W 7.K P 9.&.oX#.j 4 2 w V V N u H r 1 < < < % O : = - 9 9 3 9 - ",
"` ~ ^ ` ' v.v.' r.GXAXT.J.DXT.U.U.} b }.$X=.7.q.q.7.%.|.}.@.}.{.Q 9.7.6.s.>.<X$.d j h ~ ~ V h i E r 1 < < > % O o # - - 3 9 e e ",
"( ( ^ ] ' ' ' T n.DXAX) } xXK.V.C.$.| o. Xt.8.7.e.7.%.|.}.|.XXXXt.g.s.w.h.S.rX.X3 3 w g B B B ! E a , > @ $ # # # $ 9 3 3 w t B ",
"( ~ ~ T T ^ T 1 <.AX'.F O.} V.>.t.@X[ { #.t.y.7.9.7.%.|.X.X.XX#Xt.s.s.0.h.kXaX2Xi q 9 e V V c e v 0 @ O O # : : - 9 9 3 3 4 i B ",
"U U H Y Y Y t 8 *.I.Q.i.b -.S.C.E *Xo.x ..t.q.0.7.t.-.#X#X#X#X}.y.d.d.w.j.-XrX@X& 3 w q q w w 4 e 9 $ @ O @ $ ; $ 3 9 0 0 e v V ",
"h H H H H H t 8 / v.n.J.%.-.&.C.b +.|.[ x q.V.L K P } XXOX%X%X@Xl.z.z.l.j.:XrX&Xw w g w w e w 9 9 9 3 $ $ $ $ - & & 3 3 9 q c v ",
"y r r G G 7 a u v R R J.*.-.Q u.v o.X.[ +.K 8.e.7.K b ..@.|.XX+Xw.f.f.l.d.=XrX&Xg h h i e e e ; 9 9 9 9 3 3 $ $ & & & - - - c c ",
"7 r r G 1 1 u v b J R J *.%.V.y.*.{...[  XL 6.w.f.q.%.o.X.{.{.o.6.9.9.q.s.&XrXeX! V B N c c c z e 9 q 0 3 , $ $ # * * - ; ; z n ",
"1 r r H r r u c s J L F %.%.V.y.} +.@...o.u.t.K q.t.-.XXOXOX#X@X9.q.0.w.g.;XpXtX/ Z V V v c c z c e q 9 3 , $ $ # # * ; ; z n n ",
"1 r r H r a c b b J J W } %.&.V.} X.|.X.}.y.y.q.K P #.oXoXXX#X=Xg.l.d.f.f.;X0XqX .Z Z Z v v c z c e q 9 3 , , $ # # = ; z n n | ",
"7 r r r r t c c b J J W } O.-.>.$.#X+X.X0X8.9.l.q.8.} X...X.{.-.d.l.d.s.f.&X0X0X . .Z Z Z v c c ; e q 0 0 4 8 3 - - ; ; z n | | ",
"y a a a a i c c b s Q b O.{ O.-.2X<X<X%X&Xu.q.6.j.h.&.o.{ ..o.} 9.y.0.0.q.@X1XrX . .Z Z / v c c ; - q w t 0 0 4 - - ; z n n | | "
};
