/* XPM */
static char *_a5a5d093d3f4a07a09a334f335b9d25[] = {
/* columns rows colors chars-per-pixel */
"64 64 256 2 ",
"   c #090806",
".  c #130906",
"X  c #18150C",
"o  c #0C1417",
"O  c #141514",
"+  c #1A1A13",
"@  c #161A1C",
"#  c #1B1C1C",
"$  c #171617",
"%  c #0D1011",
"&  c #251D19",
"*  c #2D1509",
"=  c #1D211D",
"-  c #1C2116",
";  c #27241B",
":  c #37271A",
">  c #342C12",
",  c #151D22",
"<  c #1B1D21",
"1  c #1C1823",
"2  c #231E24",
"3  c #321F21",
"4  c #1C2224",
"5  c #1A2328",
"6  c #1C2333",
"7  c #222424",
"8  c #23262A",
"9  c #252A2B",
"0  c #2A2C2C",
"q  c #2A2824",
"w  c #372C28",
"e  c #2B322B",
"r  c #37342C",
"t  c #2B2E32",
"y  c #252933",
"u  c #2D3234",
"i  c #2C343B",
"p  c #293639",
"a  c #323334",
"s  c #3C3C35",
"d  c #32353A",
"f  c #343A3C",
"g  c #3B3C3C",
"h  c #393636",
"j  c #322F35",
"k  c #472A1B",
"l  c #4E3119",
"z  c #462B26",
"x  c #473529",
"c  c #563827",
"v  c #463A36",
"b  c #533C35",
"n  c #643D2C",
"m  c #5F3118",
"M  c #3B443B",
"N  c #2C4135",
"B  c #48453B",
"V  c #564739",
"C  c #544930",
"Z  c #664829",
"A  c #664839",
"S  c #774A3B",
"D  c #78553A",
"F  c #6F5334",
"G  c #6F592A",
"H  c #2C3944",
"J  c #333C43",
"K  c #3B3D43",
"L  c #353B46",
"P  c #2F3A52",
"I  c #16304C",
"U  c #423B44",
"Y  c #3B4244",
"T  c #3C444B",
"R  c #384548",
"E  c #3B4954",
"W  c #2C4552",
"Q  c #335572",
"!  c #434444",
"~  c #454A44",
"^  c #434A4D",
"/  c #4C4D4B",
"(  c #494745",
")  c #564B47",
"_  c #4A524C",
"`  c #55534C",
"'  c #595648",
"]  c #434C53",
"[  c #464D57",
"{  c #4B5253",
"}  c #45525B",
"|  c #4C555C",
" . c #485557",
".. c #535453",
"X. c #545A5C",
"o. c #5C5C5C",
"O. c #565857",
"+. c #564F56",
"@. c #664945",
"#. c #67574A",
"$. c #765947",
"%. c #655B55",
"&. c #755850",
"*. c #5B665A",
"=. c #786546",
"-. c #68635B",
";. c #776658",
":. c #6D704C",
">. c #4D5A63",
",. c #495664",
"<. c #525C64",
"1. c #535E6A",
"2. c #5A5C64",
"3. c #475471",
"4. c #645B66",
"5. c #55626B",
"6. c #59646D",
"7. c #556467",
"8. c #5A6771",
"9. c #5C6A74",
"0. c #5A6977",
"q. c #5F7079",
"w. c #4F6468",
"e. c #686867",
"r. c #766B65",
"t. c #616C74",
"y. c #626E7A",
"u. c #6A6D76",
"i. c #64727C",
"p. c #687279",
"a. c #767877",
"s. c #75736C",
"d. c #885536",
"f. c #906E39",
"g. c #865C46",
"h. c #8C5B55",
"j. c #87674A",
"k. c #897546",
"l. c #896758",
"z. c #966957",
"x. c #887558",
"c. c #957253",
"v. c #AC7258",
"b. c #887467",
"n. c #957867",
"m. c #867A76",
"M. c #8F776F",
"N. c #A57966",
"B. c #AE736B",
"V. c #C77E6D",
"C. c #7E826F",
"Z. c #8A847B",
"A. c #99867A",
"S. c #948A6C",
"D. c #A5856C",
"F. c #A88976",
"G. c #B8947A",
"H. c #B19075",
"J. c #A49053",
"K. c #C99375",
"L. c #D7B274",
"P. c #DCA365",
"I. c #E9C571",
"U. c #3A6689",
"Y. c #34658E",
"T. c #4B779A",
"R. c #52708D",
"E. c #657482",
"W. c #6C7B84",
"Q. c #6C7C8A",
"!. c #697682",
"~. c #747E88",
"^. c #6E7B92",
"/. c #4F7BA5",
"(. c #5C829A",
"). c #73828D",
"_. c #7A8489",
"`. c #6B8396",
"'. c #748493",
"]. c #7C8C9C",
"[. c #798996",
"{. c #748D95",
"}. c #5887AA",
"|. c #668AA7",
" X c #6F91AE",
".X c #7DA2BF",
"XX c #699CC4",
"oX c #67A0CB",
"OX c #888785",
"+X c #958B85",
"@X c #989586",
"#X c #858E99",
"$X c #87939B",
"%X c #999A98",
"&X c #A99689",
"*X c #B99C88",
"=X c #A59A95",
"-X c #B08F89",
";X c #B1A894",
":X c #8898A7",
">X c #8D9BAB",
",X c #97A4AB",
"<X c #98A8B7",
"1X c #92A7B4",
"2X c #A7A8A6",
"3X c #A4ACB4",
"4X c #AAB3B8",
"5X c #B8B9B8",
"6X c #B1B2AB",
"7X c #95A59D",
"8X c #C79A86",
"9X c #D39387",
"0X c #CBAA97",
"qX c #D9A995",
"wX c #D2B193",
"eX c #E7AE96",
"rX c #C7B9A7",
"tX c #C3BCB6",
"yX c #D9B9A8",
"uX c #EBB7A6",
"iX c #B6C5B6",
"pX c #BECF99",
"aX c #D3C299",
"sX c #D1C7B4",
"dX c #EDCCB6",
"fX c #EAD18B",
"gX c #97B2CA",
"hX c #A8B7C7",
"jX c #B4BCC4",
"kX c #A1AEC1",
"lX c #B9C3CA",
"zX c #BAC9D6",
"xX c #ACC1CF",
"cX c #C6CAC7",
"vX c #D7D2CA",
"bX c #C3CCD5",
"nX c #C9D2D8",
"mX c #DADAD8",
"MX c #CFCEC5",
"NX c #E3DBD6",
"BX c #F3D6C4",
"VX c #D9E4D4",
"CX c #E6E3DB",
"ZX c #F6E8D8",
"AX c #FAEBD3",
"SX c #C9D7E3",
"DX c #D4DDE4",
"FX c #D9E4E9",
"GX c #DEE9F2",
"HX c #E7E9E7",
"JX c #F3ECE4",
"KX c #FCF3EB",
"LX c #ECF4F8",
"PX c #FCFEFD",
"IX c #F5F9F9",
"UX c #EAEEF4",
/* pixels */
"t.y.5.6.y.6.W.5.0.6.9.9.y.i.!.i.i.9.t.i.1.5.6.6.>.6.[.W.W.!.1._.bXSX<XSXPXPXPXPXPXPXUXSXxXhX<X:XQ.!.t.t.4.>. .#.D.g T / s L H Y ",
"W.i.i.6.t.u.p.8.9.9.9.i.9.Q.).).i.).p.8.5.t.5.6.5.6.Q.>X).^.Q.,XbXUXjXbXPXPXPXPXPXLXFXzXhX<X>X[.Q.u.7.1.2.>.] ;.$.R f h.-X+.L s ",
"_.i.y.9.u.p.i.W.9.q.p.i.i.).].].$X#X).p.6.1.8.i.t.9.1.W.,X].#XIXbXLXjXzXPXPXIXLXLXGXSXhX<X>X$X).W.9.w.<.<.] / M.@.p ..B.h.~ i B ",
"#X).i.E.!.i.!.W.W.Q.W.W.'.].>X1X<X,X$X>X~.<.t.8.8.9.[.OX$XhX<XDXlXIXhXhXDXIXGXFXFXSXzXkX1X:X[.W.!.8.w.>.>.^ %.h.; r 0XB.k R i g ",
":X#XQ.Q.Q.^.'.).).[.W.).].1X<XjXDXFX3XDX4Xt.t._.$Xy.DX,X~.1XkX4XxXSX1X>XhXDXSXzXzXxXhX<X:X].).!.u.9.5. . .{ b.S ' 0X9XN.e p ^ J ",
"jX#X).Q.Q.Q.[.:X#X[.).'.:XkXnXDXUXIXUXnX,XnX,XlXlX#XLX3XbX#XE.1XgX>X].:XkXhXhXxXhXhX<X1X:X'.Q.i.u.6.w.| ] ..F.z.uXeXv.S B d U i ",
"UX4X,X,X>X].>X<XlX3X3X,X1XzXIXIXIXPXIXHXjXnXlX4XbX>XIXbX[.E.E.:X].].{.].<X<XhX<X<X1X>X:X[.Q.!.y.u.w.>.2.T e.F.v.v.K.H.l.h d g f ",
"PXFXbXnXbXjXSXhXIXFXbXnX$XDXPXIXPXIXPXHXHXmX4XjXhX>XzX$X>.E.^.'.].'.Q.[.:X>X1X>X>X:X:X[.Q.i.y.9.2.w.<.+.T Z.N.d.D.qXv.@.f T s M ",
"IXHXnXbX3XnXbX4XIXmXmXnX$XSXLXLXLXPXLXSXzX<X>X^.`.:X].E.E.i.E.).Q.Q.Q.'.].:X:X:X:X:X[.).W.y.6.6.5.1.|  ._ A.S g.eXeXB.b g Y f ! ",
"LXjX3X3X[.hXlX1XFXjXlXlX1XzXlXnXFXGXbX<X>X'.'.Q.'.].'.q.y.i.i.Q.!.E.!.Q.'.].$X#X[.'.).Q.!.9.5.5.>.| <.[ o.A.g.qXdXqX$.x g f Y g ",
"xX,X).i.'.:XQ.'.$XW.[.].>XkX>X<XhXlXhX1X:XQ.Q.W.`.`.!.y.y.i.i.E.E.q.q.!.Q.'.'.[.).Q.Q.W.i.6.5.<. .<.} R -.F.K.BXdXD.x v ! g f ! ",
"3X>X[.Q.[.].!.Q.Q.'.'.[.:X:X].:X>X<X<X:X].!.W.W.Q.E.0.i.i.0.0.0.i.0.0.i.!.Q.Q.).^.!.E.i.8.6.6.1. .] [ f Z.qX8XH.h.x s ~ ! d t u ",
"1X'.'.Q.Q.'.^.!.i.Q.'.'.[.[.].].:X:X:X[.'.E.E.!.E.8.8.y.t.9.9.0.i.y.9.9.i.i.!.W.W.i.i.9.6.5.5.<. .] E ~ ;XqXN.l z v M M g j ~.p.",
"$X[.Q.E.Q.).!.!.W.E.).'.Q.'.^.'.'.'.].'.'.E.i.y.0.6.6.8.8.8.9.0.9.9.9.0.9.0.q.i.y.9.8.8.5.<.<.| | T | ( 0XqXS w v g e 2XOX7 u._.",
"[.'.W.Q.W.W.!.t.E.9.!.W.W.Q.Q.Q.).Q.Q.E.E.0.y.9.6.6.5.5.5.6.8.0.8.8.8.8.8.8.8.0.8.8.6.w.<.>.| | { ^ f r.sX8XA u t f a 2XC.0 u 8 ",
"^.'.E.Q.E.0.i.i.q.E.q.i.E.0.Q.y.W.i.W.i.i.0.8.5.5.6.6.1.1.5.6.6.5.6.8.8.6.6.6.6.6.6.>.} | |  .X.{ ] f =XyXN.x R 7.i g g g f i t ",
"i.W.Q.W.i.9.i.8.q.0.E.0.e.B B s.y.i.i.q.6.8.1.8.1.8.>.5.5.>.w.w.| 8.5.6.9.5.<.5.w.>.>.1.[ } [ { ^ ^ ) yX0X$.r } 4Xg t { ( h g t ",
"[.>Xt.W.i.i.8.t.6.0.8.~.-.;.Z.@X~.t.9.8.y.5.1.,.1.<.9.<.>.>.<.<.>.>.>.5.9.<.>.| 5.<. .} | >.T ] ] g @XyXD.V a J Y a f ! g a a a ",
"$XlXi.t.i.9.5.i.9.5.| Z.sXdXrXvXmX7.9.8.0.1.<.5.} | 5.6.| <.6.| >.<.5.<.<.6.1.| E  .[ ^ ^ T 3Xa.J tXsX8Xl.b ! Y f ! u a d a t a ",
"p.i.i.5.4Xp.9.DX9.t.O.;XsXaXrXdXJXZ.<.1.>.<.6.| >.>.<.[ 1.| ] X.<.<.| <. . .[ | } 1.3X*.a.X.4X~.p +XdXH.#.s f ! g K a f a u t u ",
"9.9.t.i.t.6.8.[.>.3XZ.;.aX*XF.D.x.+Xa.<.} X.2.| | [ ] | X.OXX.^ | p.7. .X.2.t.| [ 6.lX .4Xt.^ Y ! rXeXN.V a K 0 a a g u u a a t ",
"6.5.y.| 9.6.<.5.5.2.-.:.G.S.F Z l @X5X} ,XX.cX6.] p.e./ 2XZ.a.+XX.jX4XT T _.,XL | ] { { T 2.^ f +XdX8Xz.w d f f f a d 7 u a 0 a ",
"1.6.,.5.6.>.5.| 1.X.Z.;X=.x.=.Z c V p.} $Xo.#X7.] _.$Xs.-.. ' vX| p.p.^ ^ X._.| ] T ^ T T  .! / yXyXG.A v u u h 0 u 0 0 u 9 7 t ",
">.>.1.6.>.>.>.>. .o.rXS.l =.F Z l v 6.,.] O.] } X.{ ..;   X . V O.^ ] O.^ X.t.^ ^ ^ Y T ^ T d a.dX8Xx.b h d i a f d 7 0 9 0 0 7 ",
",.>.,.>.>.} ,.,.Q O.;Xg.Z =.Z d.C B | <.X...X.} ] 4.9 * v.K.n.v | ] { ] ] ] L ^ ^ E Y K T J 0 rXyXF.F x g i u h u u 0 0 0 0 0 0 ",
",.>.,.} } } >.} ( C x.j.D.n.Z d.&.` ] [ | ..X.] [ / X H.dXdXAX6X{ ! { L T ] T ! Y ^ Y K J f %.dX*Xz.c w h d u a e 0 0 0 0 9 9 7 ",
",.} } [ ,.[ ] T n.S.n.F *Xj.D k.` ( E E ] { [ ] E a : qXeXG.qXAXe.K ^ Y T Y Y T ~ M R K L 4 &XuXD.F x w a J u t 9 9 9 9 9 7 7 7 ",
"} [ } E } [ ^ e.H.@XF G k.d.K.k.g T [ E ] L L T E q ;.qXD * z.8Xa.g Y ^ ! f Y J f Y R i t s rXwXx.c w w 9 u 9 7 8 8 9 9 8 7 7 7 ",
"E E } E E | ! Z.S.-.D m Z d.N.B Y T E R T L L L U x *X8X$.: N.c.' B f L Y K Y i f t R J 9 ) BXG.$.z w 9 8 9 7 7 9 8 7 4 4 7 < # ",
"} T T } E T ( &Xx.l d.v.l F ) W R R R J R L T L t ;.H.9XuX-XqX*Xb ! f f J f d J f i 8 u # &XdXn.A z j t 8 9 8 8 7 4 < # < < < # ",
"[ T ^ } W H r.yXC l m B.F.w H W R J T L J H J u B n.G.qXuXBXB.-XA.v u H f a t H p d a O -.BX8Xn.c w 9 5 4 4 < 4 # # # # < < # # ",
"E ] ^ E W E Z.D.sXG.Z k A.f W K L i J J J J L t A 9XG.K.K.qXm k BXv y i y a f 6 p 2 2 OXZX0XN.D k w 4 , 4 4 # 4 # # < # # # # # ",
"! } ! Y ] *.C.J.aXH.D.* l R W K L J J H H J i y ;.V.N.B.c.H.A n uX+., a a y t p 6 r rXAX0XD.z.V w q , , 4 # # 4 < < < < < # @ @ ",
"Y [ J -.x.=.:.aX;XD $.l x.g H p J J J J f J i y n.v.N.g.H.S n h.8X( y u 8 d 0 y y &XAXwXD.z.j.x q 7 4 5 4 # < 4 # @ @ @ @ @ @ $ ",
"E ^ J x.J.f.:.VXS.Z * $.b.K L p J i i f i i u y l.eXj.z.g.S B.z.H.U , 9 y t # f ( *XwXD.N.N.Z k ; 4 4 5 4 < # , < # @ @ @ @ @ $ ",
"L H K k.k.k.f.@XS.* . F.M.5 ] f L d d f i i u y s h.g.d.m n c S G.s 8 9 y , q %X# n.G.D.H.A k w < 4 4 , 4 < # < # @ @ @ # @ $ $ ",
"L J K =.k.k.J.k.=.* x z.;.p L J K f d f d d d i 5 x l.n z c j.$.N.r 5 0 , ^ mXPX# A N.n.;.c k x < 4 4 , 4 < < < @ @ @ @ @ @ @ $ ",
"i U d ' k.=.L.P.C c l.A ` J U p d i i i i d d u u ~ h.> ; : Z g.x.a 5 + $XPXPXmXf : n.&.b k &XB , < # # < < < # # # # # # # # # ",
"r d J ~ k.J.L.P.=.l n.*X/ p h p i t t t u d d t y a z.: $ $ : x C 4 8 ! MXPXNXvX| . l.A : $.yXC o < # # < < # # < < # # # # # # ",
"#.P L : k.I.I.L.k.A *X8X( H t i a i t t t d a 9 8 u v.Z O % X X v E t.=XHXJXvX%X~.. c b z c *X$.o < ; & 4 4 = # = # # # # # $ $ ",
"qXx.B H v L.I.J.D x.A.=X) a u i u u u t t a t 0 7 q b.l.> . . - a.@XCXPXCXCX5Xs.%Xo > c j b c.V O 4 @ 4 5 1 # - o @ O # $ O O X ",
"yXwXj.{ L ' k.m x @.#.m.v a a t 9 t t t d u t t y 9 &.N.&.$ . A 6X6XKXJXCXmX+Xs.=Xe   b & : l.C o 4 @ @ # # # O @ O + + $ @ @ @ ",
") b.;.OX%X#.C j h r b.#.g u 9 j t u 8 8 u 9 t t 6 @ #.N.l.w & z.sX#XPXJXNXMX@XOXOX] o q F V y M % @ = = # $ & # < $ + + # @ % % ",
"X._ ^ o.n.qXdX,.u v ;.Z.J i y 0 8 9 8 u f 8 u 9 t h &.N.g.z 3 *X4X0.GXIXNXtX%XOXb.-.% Z f.z y C , @ + # & # $ O o # + % + X ; A ",
"X.O...] ! b.yX@.f ' b.+Xf p p 7 t 9 9 u 0 < t 7 M v x N.S z ' CX3X/.gXLXNXtX+Xm.;.%.` Z D ; 0 c , # # # 4 4 @ @ @ @ o o + : d.v.",
"O.' #.O.X.! ) C f v ;.;X( 0 u 0 9 7 8 a 7 7 j 9 6Xe.  l.@.2 $XIX<X X}.SXNXtX+Xm.u.e.p % % O e b o # 2 # 4 4 O O O O 7 h w $.K.P.",
"O.o.-.' ) %.^ p ! ( #.&X;X: r a a u 7 q q ! o.a.hX#Xe.r i R.1XPX3X|.XXgXmX6XOXs.r.B ; M.l.j.C x @ # $ O 4 4 + : w V b.A.#.;.n.c.",
"O.4.+.O.{ +..._ ..h ' &XF.F.;X#.0 ! ~ O.o.s.s.OX X3XPXiX(./.gXKX2X|.oX>XvXsX~.m.e.1 q c.P.d.A 9 o # 7 7 8 7 b N.A.F.F.D.A B r M ",
"( ` ~ o.o.o.O...O.#.&.&X-.v r.B t ) D.dXa.o.-.$X|.iXHXlXT.}.gXJXMXiX].oXjX5XZ.OX-.y 5 + : 5 6 1 4 = + 7 q q A v.;.;.' x s ' o.( ",
"../ g ! ` / ..O.) -.#.A.m.~ ~ r h j ;XJXo.%XcX1X|.mXvX<X/.T.gXJXsXZ.{.T.$XiXZ.s.; + + % O ; . r v * S.S.; 7 r b v ) B B ` -.s + ",
"Y / ` ~ ..` / g ) ;.;.r.m.O.R h g 2.PXNXHXPXIX|. XmXJXhXU.4X4XHXrXS.7X(.$XsXA.%.+XM.w 6 $ D.L.G.0XD.G.' # M ~ ' %.( s B s e = O ",
"a u g / O.! u 9 V ;.M.r.OXO.0 ! %.HXIXJXHXZXHXQ {.CXHXbX;XfXrXUXaXH.6XR.:XMXs.%.BXK.k 4 8 @.F.V V x : v e.o.' :.` B s e % % # # ",
"0 7 a ~ ../ 0 9 ) #.b.r.a.( h h ; HXPXJXNXKX4XT.gXCXFXcXI.I.wXLXAXaX,XQ <XcXa.o.F.j.> e N s h ^ 4 B %.' -.o.B v 7 q 7 7 # # # 2 ",
"0 g ! g g / g f @.;.) V r.s e.@X  6XKXNXMXNX2XT. XHXUX5XL.fXaXIXCXdX).Q 1XtX%Xo.h 8 { _ B %.#.x ~ ' ` ) ` / a 4 7 # $ # < < # < ",
"g a g a u f d ..%.V w @.=Xm.+XA.  u.CXtX5X6X<X/.Q e.PXbXL.fXiXIXPXZX`.R. XvX%Xo.r ) ` V V ` U 9 B B s ..g 7 9 - $ # # # O 7 7 $ ",
"9 < d u K ! f ! / ) b w M.-X-XV o a tX=X%X2X'./.p r MXbXL.aX7XFXHXKXQ T.|.CX2X` M B %.~ B v s N ! ( - ; ; X $ 8 $ 7 # # 7 7 # 7 ",
"t a = u j v h e g ' C z &.G.n.0 + o OX=Xm.+X7.U.E s.mXbX.X`.`.tXZX%XQ }.T.KX2Xe.B B ` / e h g 7 q 7 # & + 7 X + 1 7 # # # 9 # = ",
"d ( Y f u a t 5 h r ; w @.F.n.w z % e.s.e.s.f W E cXLXzXR.R.R.mXJXa. XT.(.JX2Xe.u 0 r h 7 # 7 7 o # - + 4 < 1 ; & ; & ; 7 O @ < ",
"t ! ! ~ { { Y f a B ; w z x.F.r.@.  / r.O.r.u.I P cXPX<XQ /.U.UX5X5XXXU.|.mX5X! 9 # 7 o.u.g # 4 9 O @ 8 y 4 8 1 u % @ # 7 & x &.",
"0 B B B ` O.` ` / B + 2 v ;.G.-X;.+ w r.4.r.OXQ  XJXmXW.T.Y./.mX2XHX|.U. XHX2X( O # # d ( 0 < 7 - + @ @ + ; = y 5 5 p 5 # v b.A ",
"t / / B ( / ( B ` ( q 0 w &.F.b.;.; + r.) v X.Q R.=X%XlX}.Y.gXvXMXHX XT. XUX2X%.$ 7 # = 9 = ; # 7 < 7 @ 1 # + X r a d , y 4 % O ",
"5 f ~ ~ Y J Y X.` ` q q s %.&.b A ; + -.Y a a.I I 6XvXnXQ }..XsXvXLX|.(.}.HX6X%.# 7 ; ; + % = 9 2 y 1 X : & $ O t 8 o @ @ % O   ",
"%.b : w r f u K ! ( : r B q ; V A B s M ] ( %XQ W 5XmXjX/.T.T.sXNXHX|.|.}.GX%Xe.O # # $ # q 7 $ : t   J.fX=.. o 5 o o %   X . . ",
"wXqXG.j.x r q w h s w : v 7 w b V s ..v d s O.(.U.6XHXbXU.Y.|.sXCXDX|.}.}.DX2Xe.$ # = # 7 8 8 0 :...  F c * $ X %   % X X % O o "
};
