/* XPM */
static char *bae4b95fdf564de1afaa0f58a75ca546RLijLTI3AbxsFufS[] = {
/* columns rows colors chars-per-pixel */
"64 64 256 2 ",
"   c #000A09",
".  c #00041D",
"X  c #000C1D",
"o  c #010715",
"O  c #06151C",
"+  c #0C180F",
"@  c #132517",
"#  c #000524",
"$  c #000B25",
"%  c #00052A",
"&  c #010C2B",
"*  c #080F2B",
"=  c #011223",
"-  c #03122D",
";  c #021A2B",
":  c #091929",
">  c #151E26",
",  c #030C32",
"<  c #050834",
"1  c #021433",
"2  c #0A1533",
"3  c #011A34",
"4  c #0C1B33",
"5  c #021C3B",
"6  c #0D1C3B",
"7  c #09153B",
"8  c #121D3B",
"9  c #111B37",
"0  c #0B232A",
"q  c #18282B",
"w  c #02233D",
"e  c #0A233D",
"r  c #062637",
"t  c #13223C",
"y  c #1B2D3C",
"u  c #152936",
"i  c #18353A",
"p  c #103331",
"a  c #243529",
"s  c #26383A",
"d  c #273135",
"f  c #304836",
"g  c #3C6337",
"h  c #031C43",
"j  c #141E44",
"k  c #012442",
"l  c #0B2443",
"z  c #022C44",
"x  c #082C49",
"c  c #122D4B",
"v  c #1B2C4C",
"b  c #162944",
"n  c #08364A",
"m  c #14334C",
"M  c #193749",
"N  c #083A56",
"B  c #183A56",
"V  c #102C52",
"C  c #233444",
"Z  c #273A49",
"A  c #353D47",
"S  c #253A55",
"D  c #242E4F",
"F  c #183E63",
"G  c #19434B",
"H  c #0B445B",
"J  c #0C495D",
"K  c #094457",
"L  c #13435C",
"P  c #134B5B",
"I  c #194658",
"U  c #154B56",
"Y  c #28454B",
"T  c #354848",
"R  c #284858",
"E  c #364B56",
"W  c #29525A",
"Q  c #3A5459",
"!  c #325446",
"~  c #0C4A66",
"^  c #144D64",
"/  c #194A66",
"(  c #1C5264",
")  c #14526B",
"_  c #1A546B",
"`  c #155265",
"'  c #1B5A74",
"]  c #195976",
"[  c #104F6D",
"{  c #274B67",
"}  c #364864",
"|  c #235263",
" . c #28566A",
".. c #365867",
"X. c #235C74",
"o. c #225D79",
"O. c #295A74",
"+. c #345A74",
"@. c #314F71",
"#. c #18667B",
"$. c #186171",
"%. c #39636C",
"&. c #24637C",
"*. c #2A6479",
"=. c #336474",
"-. c #3B6B7C",
";. c #386778",
":. c #3D727C",
">. c #29636D",
",. c #3C635E",
"<. c #485959",
"1. c #48524F",
"2. c #516B51",
"3. c #475B68",
"4. c #4C586D",
"5. c #476669",
"6. c #586969",
"7. c #466A78",
"8. c #47747B",
"9. c #577676",
"0. c #57736E",
"q. c #656967",
"w. c #667468",
"e. c #6C7476",
"r. c #757A78",
"t. c #6B6E73",
"y. c #657459",
"u. c #415733",
"i. c #5D8270",
"p. c #728371",
"a. c #848E7D",
"s. c #1B6A83",
"d. c #197084",
"f. c #236C85",
"g. c #2C6C84",
"h. c #286986",
"j. c #376A84",
"k. c #287287",
"l. c #397389",
"z. c #377895",
"x. c #2F7193",
"c. c #1E5E81",
"v. c #456B86",
"b. c #447583",
"n. c #48788A",
"m. c #577A87",
"M. c #487C93",
"N. c #557E9C",
"B. c #717A8B",
"V. c #807D88",
"C. c #36829A",
"Z. c #3F81A1",
"A. c #578289",
"S. c #4B8499",
"D. c #588897",
"F. c #508894",
"G. c #68898C",
"H. c #668B96",
"J. c #6A969A",
"K. c #77999B",
"L. c #77878A",
"P. c #4789A2",
"I. c #568CA3",
"U. c #5A95A6",
"Y. c #5197B2",
"T. c #6698A7",
"R. c #779BA6",
"E. c #6E98AE",
"W. c #5EA3B5",
"Q. c #63A3AC",
"!. c #6BA5AC",
"~. c #6BA6A8",
"^. c #74A4AB",
"/. c #78A7A9",
"(. c #65A6B4",
"). c #6AA5B2",
"_. c #65A9B5",
"`. c #6BAAB5",
"'. c #64A9B8",
"]. c #6BACBA",
"[. c #68A5BB",
"{. c #73ACB4",
"}. c #7BACB3",
"|. c #73AEBA",
" X c #77A6B6",
".X c #6DB0BA",
"XX c #74B2BC",
"oX c #7BB3BC",
"OX c #7AB2B5",
"+X c #7CB0AE",
"@X c #7BB6C4",
"#X c #74B0C5",
"$X c #57A2C2",
"%X c #848A89",
"&X c #8C9292",
"*X c #849DA9",
"=X c #87A8AA",
"-X c #87ACB4",
";X c #84B4BB",
":X c #88B6B9",
">X c #95B8BA",
",X c #8EAFB5",
"<X c #A4BEBC",
"1X c #80A39F",
"2X c #9DC2BB",
"3X c #89C1BE",
"4X c #A5C2BE",
"5X c #86B9C5",
"6X c #96BCC3",
"7X c #8AB7CC",
"8X c #A1BFC1",
"9X c #8BC2CB",
"0X c #9CC2C2",
"qX c #9CCBCC",
"wX c #96C5C9",
"eX c #8AC5D5",
"rX c #99C9D6",
"tX c #9BD2D8",
"yX c #A7C9C8",
"uX c #ACD4CD",
"iX c #B3D3CD",
"pX c #A8CBD9",
"aX c #ACD4D4",
"sX c #ACD5DB",
"dX c #ACDBDC",
"fX c #A7D5D8",
"gX c #B4D5D3",
"hX c #B4DAD5",
"jX c #BADCD5",
"kX c #B4DCDB",
"lX c #BCDDDA",
"zX c #B6D5D8",
"xX c #B3CECE",
"cX c #BCE2DC",
"vX c #B5E3DA",
"bX c #AFE4D9",
"nX c #ABD8E3",
"mX c #B9DCE3",
"MX c #AFD8EC",
"NX c #BBE4E3",
"BX c #B8E5E9",
"VX c #B7E9F4",
"CX c #B0E8F3",
"ZX c #90D0E1",
"AX c #C1DEDC",
"SX c #C3E4DD",
"DX c #C3E4E3",
"FX c #C8E9E9",
"GX c #D6F4EE",
"HX c #C8EAF5",
"JX c #C9F4F9",
"KX c #DDFEFE",
"LX c #D5F9F9",
"PX c #D0EAE1",
"IX c #E7FFFC",
"UX c #C3DFE2",
/* pixels */
").).`.).Q.).Q.).XXQ.T.).U.S.@X).].W.].Q.Q.~.~.~.oX{.~.!.`.[.'.(.(.Q._.).'.'.'.'.'.'.(.(.(.(.).(.'.W.W.'.(.(.(.(.[.T.(.`.(.(.Q.`.",
"|.`.Q.Q.).).U.Q.).`.@XU.S.( ).`.W.'._.`.Q.{.J.3XKXOXOXQ.Q.(.#X(._.)._._._.'.'.'.'.'.(.(.(.(.).(.'.'.'.'._.(.'.[.[.(.`.(.(.).(.`.",
"!.).).).oXXXF.|.{.{.|.-.b.n T.)..X'.).Q.!.^./.NXKXfX^.5XXX(.].W._.)._._._._.'.'.'.'.(.(.(.(.(.(.).).(.(.(.(.(.(.[.(.[._.(.[.(.].",
"{.5X9X5X5X~.| D.oX{.T.I -.n T.D..X_.XX{.:XJ.0XLXNXkX-XtX|.Q.'..X_.).(.(._._.'.'.'.'.(._.(.(.(.(.).).).).).`._.'.'.'.].(.'.[._.].",
"qXfXBXfXtX^.n A.;XoXT.G ;.m m.;.XX.XOX-X:X=XGXIXxX8XHXsX^.`.].].`.).).)._._._._._._._._._.).(.(.!.).).).)._._._.(.'.].(.[.].(.].",
"dXvXBXdXBXqXG H.-X;XR.I ..M m.I OXoX~.:X6XDXIXPXxXAXKXdX}.XX_.W.].].].`.`.`._._._._._._._._._.).).).).).).)._._.'.].]._.].].(.@X",
"cXaXNXaXNXuXi A.wX6X:XR ..M H.M T.OX:XaXlXLXPX<XgXKXgX6X}.{.].XX`.`.{.].].].`._.[.`.`.`.`.`.`.`.`.{.`.`.`.`._._._.].`.`.|.{.).9X",
"cXaXcXhXNXaXi m.sXsXpXR R b J.M ^.;XaXaXuXuX4XiXyXyXyX+XOX!.@X].!.).`.].].].].`.].].].].].].].`.{.{.{.].`.`.`.`..X].).{.}.^./.qX",
"hXcXcXuXFX0Xi A.>XzX-XY ..M 7.Y /.NXNXNXhXSXcXcXcXvXqX-X/.OXoX{.eXP U.|.`.XX`.XX`.`.Q.oX{.{.{.).).`.@XQ._.XXQ..X].{.{./.+X>X,XDX",
"cXlXlXjXDX=X0 7.zXaXK.i E Z m.M 6XFXhXlXcXvXuXvXvXdX:X+X5X}.^.|.S.K -.|.@X|.).XX).{.OX{.~.^.!.rX9X(.].XX`..X].{.{./.+X+X,XFXyXGX",
"jXlXlXiXDXyXZ 3.DXmXG.M R Z *XZ >XDXgXgXcXvXaXvXbXwX+X:X}.;X Xb.X.K J U.@X|.].XXOX{.OX5X;X-X:XJX@X[.`.|.XXXX{.!.;X/.=X/.4XIXPXIX",
"AXyXlXlXDX,XY G.mXmX,XE E } B.; 1XDXlXhXcXvXvXvXbXfXqX:X^.5XT.-.*.J K *.`.XX@X{.OX/.}.nX6X;XHXBX{.9XoX|.5X{.{.qXNX-X,X=XPXIXIXIX",
"=X1XFXDXlX,Xp Q DXHXH.0 C E R.Y =XlXlXlXlXcXhXhXNXaXdXqXD. XD.n.o.H ~ K l.#X5X{.OX~.VXkX>XLXKXaX6XtX5X}.}.^.wXKXHX-X=XyXIXGXGXPX",
">XG.lXDX0XR.i H.zXmX,XY } ..4.0 0XyX>XDXjXlXjXlXaXFXaXJ.R. X .;.` ~ ' J J Q.oX}.;XBXaX6XHXKXUX,XdXfXqX-X-XsXLXKXgX>X>XGXGXgXiXiX",
"0.G.GXgX9.-XG R.HXmXm.y Y M 9.Z >XK.K.FXjXlXAXAXlXzX6XA.^.^.l.^ ~ ] ) ) N n.OXoXVXIXaX0XIXPX>XyXNXvXkX>XyXKXIXlXxXgXAXLXgX2XyXyX",
"5.G.FXuX9.DXW m.HX6X..y E M ..; R.9.i.GXgXAXAXlXlX,XR.7.T.n.F.*.) &.H ~ K >.5X;XsXyXyXyXiX4X<XAXjXhXlXyXuXjX>X4X4X4XlXuX2XyXDXcX",
"G.Y DXDXG.=XE E zX6XG.M R M M M K.K.0.GXgXgXlXlX>XG.D.A.D.T.T.( _ o.) J K H 9XVXkXkXcXlXlXSXSXjXhXcXhXSXcXjXSXAXSXgXgXSXhXSXkXcX",
"0.E zXlX5.9.E R.mX*XpX3.c e { ; ,XQ E SXxX6XFX0XH.m.;.A.^.F.b.( _ S.) ^ P J n.nXfXNXgXjXjXgXDXjXkXcXcXcXhXjXSXiXjXSXjXjXjXjXcXkX",
"7.Q mXlXY 5.i 3.pX>XpXM M 5 m S ,XG.9.zXlX>X6Xm.7.8.%.9X5Xn.;.L S.U.` ~ J P U wXBXkXjXcXcXjXgXcXhX>XNXkXcXhXDXjXjXcXlXhXSXcXlXcX",
"m...mXzX5.m.i R.DXR.7.c c e +.e ,X%...HX>XH.R.%.7.| D.pXn.b.| ( U.*.^ ^ ( ` n :.VXkXkXcXcXcXuXcXqXA.>XFXNXcXkXDXcXgXDXhXDXDXhXhX",
"J.7.HXmXW W r %.pXH.{ $ w B c B mX..M pXH.%.A.;.A.+.tX5X8.H.I T.U.J ) ` ` _ P U ;XNXhXkXhXaXFX0X}. .:.VXdXNXkX0XaXkXNXhXcXcXkX-X",
"R 8.HXsX7.M r r ;.v...R R 5 { 3 R.b.r 8.b.| ;.;.+.M.wXb.D.n.| 5XU.' _ ~ J ` ` ( %.wXNXvXdXNXaXJ.F.( G oXVXmXBXH.R.BXkXkXcXcXNXA.",
"r M nXpX| r r I ;.+.R k m l 4.l D.b.I n.;.N ;.;.+.T.D.| D.I n. XS.g.' ) ' ^ J J G 8.fXNXNXkXH.8.-.P P =.CXnXtX:.%.fXNXNXBXkX0X5.",
"B x 6XH.n R w n I ;.@.3 m l l l N.+.B M.I z l.;.n.M.M.;.M.| D.M.[.M.' ) g.] o.H P n D.nXBX}.%.=.>.( _ H eXCXD.>.I 5XVXmXBXsXA...",
"m x 7. .w n w { { +.B 3 l 5 c e ;.{ / n./ / j.j.M.M.;.j.=.O.n.5XW.o.h.N h.] [ ) _ K I 6XfXn.%.:.j.J _ ^ (.eX-. .I :.VXBXfXA.m.W ",
"@.B { I z { w m +.m m e 1 1 S 5 v.B N j./ L O.N.l.O.O.O.;.=.E.rXl.o.~ ] [ [ ] ~ H ;.z ;.5Xn.j.l.` _ g.) g.I.*._ ( ( oXJXT.-.=.b.",
"B w x I x B 3 R B l B e 1 1 b 5 { { 5  .N k j.l.*.H n.n.-.=.|.T.o.&.[ ~ z.[ ] ' _ H (  .M.b.=.( l.' &.&.&.g.o.' ^ P l.eXS.=.=.M.",
"m x I { l l 1 { l l D - 3 e b 5 { / z { N N j.j._  .M.n. .-.7XM.l.H ] ] x.x.c.[ ^ H ( M.n.n.K I.#X&.X.h.&.g.] _ ) _ _ S.M.*.l.O.",
"B { @.c 5 l 5 l v 1 6 # 2 b v - { N z j./ N g.O._ l.M.;.O.F.nXD.X.H l.' z.Z.] ~ ) ^ l.D.F.I b.rX@XS.I.l.] g.] ) ] ~ ' S.o.o.*._ ",
"x x B l l 6 7 1 j # % % b t 6 1 B V z j./ z j.^ l.l.S.*. .T.VXF.K -.P.) P.z.z.~ ) N @XU.=.I 7X5X[.I.[.l.o.g.' ) ] [ x.g.o.l.] g.",
"x 3 x S B 1 , 7 2 & & 2 D - - 3 B w B  .L L O.o.M.*.l.( ( rXVX:.| 5Xl.^ S.W.z.&.N S.7XD. .T.7X XT.M.I.*.j.g.o.[ ] h.P.[ z.M.] x.",
"x 3 w S b 3 , 7 D % & 2 2 - D - m 3 3 { / k _ l.o.M.l.P -.LX XG  X5X-.` l.'.W.*.*.CXrX=.n.).rXU.I.S.I.*.l.&.h.] ] h.z.f.x.h.o.&.",
"1 - 3 e 2 8 - 2 v , & , , , , & t 3 b S c k ) ' &.l.*.I nXDXJ.%.VXj.I.J l.#XS.( tXVX^.b.T.Q.eXP.U.g.g.g.' g.k.[ #.h.h.x.' ' &.&.",
"v & & & 8 - & & b & % , % , % & 6 $ 2 v c k ^ ) &._  .5XHXyX9.:XrX X@Xn.).).l.n.fXfX:.F.:.eXS.' g.] g.g.&.k.f.J #.g.&.g.^ _ _ X.",
"8 % - 4 v - # 2 b , , , & & % & b - 2 b c x / ) &.' @XVXrXR.7.mXaXJ.6X-X}.^.8.J.nXqX-XD.;X^.;.N _ ^ o.&.*.g.' z *.g.j.X.N N B / ",
"8 1 # - - - # D b , , , , & % - v - 2 6 l h N N h.&.#XZXM.n.fXKXG.2X2XzXaXR.J.wXNXBXBX:X:X%.I w L L { O.+.j./ n /  .v./ V 5 l m ",
"7 & # 2 9 4 . 4 8 & % & & & # - b & 1 1 1 , k V / g.&.z.W.CXrXH.yX2XgXFX=X>XHXBXfXtX9XwX;.| M 5 k c B { B I k k w x { B c 5 1 l ",
"8 , & . * & 2 v 6 & % % & & $ 4 e & 1 & , , h V / ] k.#.@XZXU.BXdX0XhX/.=XKXBX5X5X~.{.D. .R m e 5 5 5 c 5 l 1 5 3 5 3 b e b 1 l ",
", % 7 2 2 & 2 b 2 , , & & & $ t 6 $ & % , % < h B ~ k.#.k.f.U.eXF.~.}.rXJXpX XD.F.U.I. .I z 5 l 6 $ % - 5 v v b 6 2 $ 6 b 6 - 6 ",
"j , # , % & % 8 , , 1 & & % & v b - 1 % , < < 7 V _ s.d.#.d.&.S.U.`.eXeX].[.7Xg.X.M.j.K z - B S 6 # 2 # 4 6 b - & # 2 8 E $ * $ ",
"7 % 7 % & & % D 6 7 # , 1 & & D 4 - 1 1 , % < < h _ k.$.s.s.&.h.&.k.S.C.k.Y.z.K / O.+.n ; r e = & * * $ $ 6 X = X 2 . 9 * * # * ",
"< % , % & % 8 D 7 7 7 % & # 6 S v - . # & , < < 7 F ] f.s.#.f.h.s.f.k.#.k.#.g.n z +.m S 0 ; X u 4 4 # . y 4 X : u : o A 4.$ 4 4 ",
"7 , % % 2 & 8 8 % & 7 % & % b D v 4 & 1 , % < , , V z ] s.f.k.] z.] k.#.&.C.J G r r E C >   <.s X $ $ Z C o o = 9.y = 4.y o X $ ",
"& % # $ - - 8 8 2 , & 7 % & 1 t & $ - 1 % % & , % 5 h / &.f.f.f.] h.#.&.$.>.U ..0 y Z > d d <.O y # u 4.o : E A E = u 3.X y X ; ",
"1 $ - $ X $ 4 8 2 & # 2 $ & - t 2 - - & % & , % 1 , , x j.h.] f.f.k.k.$.:.W G i : <.A q s <.1.T C Q Z y O s : q E Z Q u 0 E 0 C ",
"4 . = X = X X o # $ 1 % * $ 2 2 & - 2 - % & - & , & % 1 v.[.W.Y.$XY.'.U.~.H.Q Y <.T T s Q <.6.<.3.Q E y y Q E <.3.<.<.0 Z Q 3.3.",
": o X q s u y : : $ # . $ o o . # . # % $ $ - 3 # 7 7 , c j.P.C.s.z.x.).7.G E Y Y E E Q E s Y T E E E E Q E T T T T T Q Q E Q Z ",
"E T T <.<.T 0.6.3.T : u Z A A 4.3.b % & 1 & - 1 3 , % 7 & x l.k.C.z.'.rX^.W E Z i i i Y M i Q i M C y y : s T 0 C T u q y 0 y E ",
"w.w.p.f @ T p.f a <.e.<.5.6.<.y S v v D v D D v v v v v c x ;.T.@X5X;XJXBX-XY i u y y u y Z R M r X C } $ u C Z : y C u 4 $ $ y ",
"2.a @ f p.p.! f <.T s q i q 0 u 4 b v v v j j j b b l m x z { H.:XBXwX6XnX;X7.O H.*Xo = u b c ; - = $ v t & t S 8 . t 4.2 - $ & ",
"d q 1.%X6.@ T <.3.u b M R c c b u C E Z 2 l S D S } m ; .. XmXD.R.wXnXfX X XT.M H.,X..R = ; 3 = - - . - b # $ t D & . - 2 2 - 6 ",
"1.L.L.&Xr.T 1.<.C y b - c h 5 5 Y R Y Y S b e c c m B 7.pXrX6XJXJ.^.}.wX@X XD.+. XBXm.R.m.7. . ...} ..R } ..} } N...} S } } R S ",
"e.s q 1.%X6.+ a w.<.6.Y e k V h r 0 M b 1 5 x 5 k k { v.E.HXT.-XsXA.R.-.D.T.O.n j.MXE.v. XD.w w 5 c c 1 5 v 5 5 1 1 6 S 6 l 1 v ",
"+   a q.a.%X2.a @ @ s i M r x I M E R r 3 w k k V @.+.B B pXpX..qXA.D. .j.#XI.z.H l.D.;.T.rX;.- B +.B c V l 5 1 1 l B m 1 5 5 m ",
"g 2.u.y.p.p.a.w.1.q q Z p i f f ! p p Y G n z z +.O.j.| I m.IX%.8.^.| P l.P.z.g.X.H n  X{ I.T.L I.N.v.+.{ B B 5 h 5 { B 1 x @.B ",
"g f f 2.2.y.r.r.&X6.s T ! 0.y.i.0.i.9.,.G n n n { +.-.I %.W >X6XG O.j.N g.Y.] [ ~ N / n.=.;.@XT.[.j.N.+./ { { 1 z { { { V B B j.",
"g 2.2.+   d > o e.&Xf a 1.g w.i.2.! f p Y %.W G I I ;.W W ..%.W R | *.N o.P.h.N N ~ n O.;.I ^.7XM.N X.X./ / L z N B L j.N { L  .",
"2.2.! s E 3.E 1.e.p.r.6.  @ T a a ! a Q A.A.%.B n N m | W G ; r R N H ^ N ~ [ ~ H N O.U.T.| I  Xl.z L L  .*./ n z L S.rXn.M./ N ",
"r = = Y <.a a q.w.%X%X&Xt.1.o > <.6.<.9.Q p M  . .+.+.I ..m M m  .n L _ g.~ ) N K H F.nX Xn.R G l.K K ( I.T.*.K L =.D.nXoX=.b.I ",
"3 3 r i s a s f L.%X%Xr.&Xt.A T d o O q o O ; R 7.b.H.m.{ m ..v.B / N N ' J N K z =.;XBXqX6X%.I I P P l.5X5Xl.( I =. XnXBXD.;.| ",
"Q Q Q Z : u Q T <.<.6.t.%X&Xr.1.@   @   O T s Q G.H.J.6XW %.W 6X .X._ N _ ^ ^ =.b.;XsXmXdXmX^.%.b. .U !.nXVX^.W W T.fXBXsXsXJ.%.",
"6.i 0 0 = : u : O d O q s t.e.q.r.r.1.q T 1.s T 3.Q 9.K.H.m.i n.n.N _ N _ L b.D.qXLXzXuXNXNXdX^.J.8.A.fXwXfXqXA.J.6XdXBXaXsX0XJ.",
"> o O O O : = X : Z y : o 1.r.t.q.B.q.1.A o > Z Z y Z r m.m.{ B N.X.^ / L  . XnXyXG.yXuXK.:XwXsXwX^.:XBXfXdXBXyXaXkXHXG.K.FXFX0X",
"O O d Z T C : Z } Z 2 . d <.t.&X%XB.V.6.A > A q = 0 = = r m.+.L l.O.N n l.F.nXmXyX1XlXgX=X0XqXBXfXqXmXfXmXyX6XBXkXmXyX>XkXDXaXyX"
};
